# xmcd
#
# Track frame offsets: 
#        183
#        20548
#        40653
#        55763
#        70643
#        87950
#        112108
#        131880
#        149260
#        167250
#        185383
#        202203
#        218425
#        235088
#
# Disc length: 3370 seconds
#
# Revision: 7
# Processed by: cddbd v1.5.2PL0 Copyright (c) Steve Scherf et al.
# Submitted via: ExactAudioCopy v1.0b1
#
DISCID=bf0d280e
DTITLE=Rose Royce - Greatest Hits
DYEAR=1980
DGENRE=R&B
TTITLE0=Pop Your Fingers
TTITLE1=It Makes You Feel Like Dancin'
TTITLE2=First Come, First Serve
TTITLE3=Car Wash
TTITLE4=Is It Love You're After
TTITLE5=Do Your Dance
TTITLE6=You're A Winner
TTITLE7=Ooh Boy
TTITLE8=I Wanna Get Next To You
TTITLE9=Wishing On A Star
TTITLE10=I'm In Love (And I Love The Feeling)
TTITLE11=I'm Going Down
TTITLE12=I Wonder Where You Are Tonight
TTITLE13=Love Don't Live Here Anymore
EXTD=
EXTT0=
EXTT1=
EXTT2=
EXTT3=
EXTT4=
EXTT5=
EXTT6=
EXTT7=
EXTT8=
EXTT9=
EXTT10=
EXTT11=
EXTT12=
EXTT13=
PLAYORDER=
